<svg width="24" height="25" viewBox="0 0 24 25" fill="none" xmlns="http://www.w3.org/2000/svg">
<path d="M9.99999 21.5H14C14 22.0304 13.7893 22.5391 13.4142 22.9142C13.0391 23.2893 12.5304 23.5 12 23.5C11.4696 23.5 10.9609 23.2893 10.5858 22.9142C10.2107 22.5391 9.99999 22.0304 9.99999 21.5ZM3.07599 18.883C3.00029 18.7002 2.9805 18.4991 3.01913 18.3051C3.05775 18.1111 3.15306 17.9328 3.29299 17.793L4.99999 16.086V10.5C5.00321 8.8185 5.61109 7.19424 6.71263 5.92379C7.81418 4.65334 9.33592 3.82145 11 3.58V2.5C11 2.23478 11.1054 1.98043 11.2929 1.79289C11.4804 1.60536 11.7348 1.5 12 1.5C12.2652 1.5 12.5196 1.60536 12.7071 1.79289C12.8946 1.98043 13 2.23478 13 2.5V3.58C14.6641 3.82145 16.1858 4.65334 17.2874 5.92379C18.3889 7.19424 18.9968 8.8185 19 10.5V16.086L20.707 17.793C20.8468 17.9329 20.942 18.111 20.9806 18.305C21.0191 18.4989 20.9993 18.7 20.9237 18.8827C20.848 19.0654 20.7199 19.2215 20.5555 19.3314C20.391 19.4413 20.1977 19.5 20 19.5H3.99999C3.80223 19.5 3.60889 19.4415 3.44442 19.3316C3.27995 19.2218 3.15174 19.0657 3.07599 18.883ZM6.41399 17.5H17.586L17.293 17.207C17.1054 17.0195 17.0001 16.7652 17 16.5V10.5C17 9.17392 16.4732 7.90215 15.5355 6.96447C14.5978 6.02678 13.3261 5.5 12 5.5C10.6739 5.5 9.40214 6.02678 8.46446 6.96447C7.52678 7.90215 6.99999 9.17392 6.99999 10.5V16.5C6.99994 16.7652 6.89454 17.0195 6.70699 17.207L6.41399 17.5Z" fill="black"/>
</svg>
