<svg width="22" height="22" viewBox="0 0 22 22" fill="none" xmlns="http://www.w3.org/2000/svg">
<path d="M16.2837 1.83333C15.7736 1.83171 15.2684 1.93145 14.7973 2.12673C14.3261 2.32202 13.8985 2.60897 13.5392 2.97092L2.89207 13.6171C2.7555 13.7539 2.66567 13.9303 2.63541 14.1212L1.84432 19.1061C1.82152 19.2491 1.83292 19.3955 1.8776 19.5332C1.92228 19.671 1.99897 19.7962 2.10137 19.8986C2.20378 20.001 2.32899 20.0777 2.46675 20.1224C2.60451 20.1671 2.75089 20.1785 2.89391 20.1557L7.88332 19.3646C8.07424 19.3343 8.2507 19.2445 8.38749 19.1079L19.0291 8.46083C19.572 7.91746 19.9415 7.22529 20.091 6.47186C20.2404 5.71844 20.1631 4.93761 19.8687 4.22815C19.5743 3.5187 19.0761 2.91249 18.4372 2.4862C17.7982 2.05992 17.0472 1.83272 16.2791 1.83333H16.2837ZM7.29666 17.6L3.84999 18.15L4.39999 14.7061L12.0908 7.01433L14.9893 9.91283L7.29666 17.6ZM17.7329 7.16466L16.2846 8.61666L13.3833 5.71542L14.8326 4.26708C15.2229 3.8945 15.7418 3.68661 16.2814 3.68661C16.821 3.68661 17.3398 3.8945 17.7302 4.26708C17.9205 4.45727 18.0716 4.68312 18.1746 4.93171C18.2777 5.1803 18.3307 5.44677 18.3307 5.71587C18.3307 5.98498 18.2777 6.25144 18.1746 6.50004C18.0716 6.74863 17.9205 6.97448 17.7302 7.16466H17.7329Z" fill="black"/>
</svg>
