<svg width="24" height="30" viewBox="0 0 24 30" fill="none" xmlns="http://www.w3.org/2000/svg">
<path d="M18.3061 15.5867C17.7771 15.0824 17.1944 14.6376 16.5685 14.2603C15.9516 13.8896 15.0712 13.3915 13.9185 12.7457C12.7138 12.0796 11.76 11.5158 11.0572 11.0543C10.3844 10.62 9.79571 10.0677 9.31954 9.42383C8.86294 8.80778 8.62082 8.05906 8.63027 7.2923C8.63027 6.16861 8.99421 5.31812 9.7221 4.74083C10.45 4.16354 11.4549 3.87393 12.7369 3.872C13.705 3.86606 14.6644 4.05517 15.5577 4.42805C15.7508 4.50914 15.9333 4.59313 16.1051 4.68002C16.1659 4.70898 16.2267 4.73794 16.2876 4.76111C16.5582 4.89593 16.8572 4.9638 17.1595 4.95902C17.4618 4.95423 17.7585 4.87693 18.0247 4.73361C18.2909 4.59029 18.5188 4.38514 18.6893 4.13542C18.8597 3.8857 18.9677 3.59871 19.0041 3.29857C19.0353 3.03898 19.0126 2.77575 18.9375 2.52532C18.882 2.22126 18.7569 1.93417 18.572 1.68648C18.3871 1.43879 18.1474 1.23723 17.8717 1.09754C16.335 0.345362 14.6416 -0.0308481 12.931 -8.5388e-05C10.4751 -8.5388e-05 8.44105 0.645745 6.82889 1.93741C5.21673 3.22907 4.41064 5.09319 4.41064 7.52978C4.41064 10.4722 5.65114 12.7756 8.13214 14.4399C9.09992 15.0322 10.0996 15.5708 11.1267 16.053C12.3547 16.667 13.3017 17.1844 13.9678 17.6053C14.6279 18.0238 15.2012 18.5656 15.6562 19.2011C16.1245 19.8619 16.3673 20.6561 16.3484 21.4658C16.3671 21.9781 16.2594 22.4871 16.0346 22.9477C15.8098 23.4084 15.4749 23.8066 15.0596 24.1071C14.2024 24.7481 13.0951 25.0686 11.7378 25.0686C10.5998 25.0472 9.48014 24.7784 8.4565 24.2808C8.14082 24.136 7.84832 23.9912 7.58767 23.8464C7.12649 23.6015 6.58766 23.5471 6.08682 23.6949C5.58598 23.8427 5.16305 24.1809 4.90877 24.6371L4.80451 24.8224C4.67233 25.0578 4.58942 25.3176 4.56083 25.586C4.53224 25.8544 4.55858 26.1259 4.63823 26.3838C4.71788 26.6417 4.84919 26.8807 5.02416 27.0863C5.19912 27.2918 5.41409 27.4597 5.65597 27.5795C6.15137 27.8217 6.66106 28.0335 7.18221 28.2137C8.64659 28.7445 10.1918 29.0179 11.7494 29.0217C13.35 29.0454 14.9374 28.7285 16.4063 28.0921C17.725 27.5198 18.8461 26.572 19.6297 25.3669C20.4366 24.0534 20.8394 22.5316 20.7881 20.9909C20.8034 19.94 20.5713 18.9003 20.1104 17.9557C19.6647 17.0588 19.0524 16.2548 18.3061 15.5867Z" fill="#AB0519"/>
<path d="M2.09674 20.8143C1.68179 20.8138 1.276 20.9363 0.930747 21.1665C0.58549 21.3967 0.316292 21.7241 0.157233 22.1074C-0.00182581 22.4906 -0.043593 22.9125 0.0372192 23.3195C0.118032 23.7265 0.317789 24.1003 0.611203 24.3938C0.904617 24.6872 1.27849 24.8869 1.6855 24.9677C2.0925 25.0486 2.51433 25.0068 2.89759 24.8477C3.28084 24.6887 3.60828 24.4195 3.83846 24.0742C4.06864 23.729 4.1912 23.3232 4.19062 22.9082C4.18986 22.3531 3.96901 21.821 3.57649 21.4285C3.18398 21.0359 2.65184 20.8151 2.09674 20.8143Z" fill="#AB0519"/>
<path d="M21.9061 3.4491C21.4912 3.44853 21.0856 3.57101 20.7404 3.80106C20.3952 4.03111 20.126 4.35838 19.9668 4.74147C19.8077 5.12455 19.7658 5.54623 19.8463 5.95316C19.9269 6.36009 20.1264 6.73397 20.4195 7.0275C20.7126 7.32102 21.0862 7.52101 21.493 7.60215C21.8999 7.68329 22.3216 7.64194 22.7049 7.48332C23.0882 7.32471 23.4159 7.05596 23.6464 6.71108C23.8769 6.36621 23.9999 5.9607 24 5.54588C24 4.99028 23.7794 4.45739 23.3868 4.06425C22.9942 3.67111 22.4617 3.44987 21.9061 3.4491Z" fill="#AB0519"/>
</svg>
