<svg width="17" height="30" viewBox="0 0 17 30" fill="none" xmlns="http://www.w3.org/2000/svg">
<path d="M14.3061 15.5867C13.7771 15.0824 13.1944 14.6376 12.5685 14.2603C11.9516 13.8896 11.0712 13.3915 9.91855 12.7457C8.71377 12.0796 7.75999 11.5158 7.0572 11.0543C6.38441 10.62 5.79571 10.0677 5.31954 9.42383C4.86294 8.80778 4.62082 8.05906 4.63027 7.2923C4.63027 6.16861 4.99421 5.31812 5.7221 4.74083C6.44998 4.16354 7.45493 3.87393 8.73694 3.872C9.70501 3.86606 10.6644 4.05517 11.5577 4.42805C11.7508 4.50914 11.9333 4.59313 12.1051 4.68001C12.1659 4.70898 12.2267 4.73794 12.2876 4.76111C12.5582 4.89593 12.8572 4.9638 13.1595 4.95902C13.4618 4.95423 13.7585 4.87693 14.0247 4.73361C14.2909 4.59029 14.5188 4.38514 14.6893 4.13542C14.8597 3.8857 14.9677 3.59871 15.0041 3.29857C15.0353 3.03898 15.0126 2.77575 14.9375 2.52532C14.882 2.22126 14.7569 1.93417 14.572 1.68648C14.3871 1.43879 14.1474 1.23723 13.8717 1.09754C12.335 0.345362 10.6416 -0.0308481 8.93098 -8.53879e-05C6.47508 -8.53879e-05 4.44105 0.645745 2.82889 1.93741C1.21673 3.22907 0.410645 5.09319 0.410645 7.52978C0.410645 10.4722 1.65114 12.7756 4.13214 14.4399C5.09991 15.0322 6.09962 15.5708 7.12671 16.053C8.35465 16.667 9.30168 17.1844 9.96778 17.6053C10.6279 18.0238 11.2012 18.5656 11.6562 19.2011C12.1245 19.8619 12.3673 20.6561 12.3484 21.4658C12.3671 21.9781 12.2594 22.4871 12.0346 22.9477C11.8098 23.4084 11.4749 23.8066 11.0596 24.1071C10.2024 24.7481 9.09509 25.0686 7.73778 25.0686C6.59982 25.0472 5.48014 24.7784 4.4565 24.2808C4.14082 24.136 3.84832 23.9912 3.58767 23.8464C3.12649 23.6015 2.58766 23.5471 2.08682 23.6949C1.58598 23.8427 1.16305 24.1809 0.908774 24.6371L0.804515 24.8224C0.672328 25.0578 0.589418 25.3176 0.560831 25.586C0.532245 25.8544 0.558579 26.1259 0.638232 26.3838C0.717885 26.6417 0.84919 26.8807 1.02416 27.0863C1.19912 27.2918 1.41409 27.4597 1.65597 27.5795C2.15137 27.8217 2.66106 28.0335 3.18221 28.2137C4.64659 28.7445 6.19177 29.0179 7.74937 29.0218C9.35002 29.0454 10.9374 28.7285 12.4063 28.0921C13.725 27.5198 14.8461 26.572 15.6297 25.3669C16.4366 24.0534 16.8394 22.5316 16.7881 20.9909C16.8034 19.94 16.5713 18.9003 16.1104 17.9557C15.6647 17.0588 15.0524 16.2548 14.3061 15.5867V15.5867Z" fill="#AB0519"/>
</svg>
