<svg width="22" height="22" viewBox="0 0 22 22" fill="none" xmlns="http://www.w3.org/2000/svg">
<path fill-rule="evenodd" clip-rule="evenodd" d="M6.41667 4.58333V3.66666C6.41667 2.65414 7.23748 1.83333 8.25 1.83333H13.75C14.7625 1.83333 15.5833 2.65414 15.5833 3.66666V4.58333H18.3333C18.8396 4.58333 19.25 4.99373 19.25 5.49999C19.25 6.00626 18.8396 6.41666 18.3333 6.41666H17.4167V16.5C17.4167 18.0188 16.1854 19.25 14.6667 19.25H7.33333C5.81455 19.25 4.58333 18.0188 4.58333 16.5V6.41666H3.66667C3.16041 6.41666 2.75 6.00626 2.75 5.49999C2.75 4.99373 3.16041 4.58333 3.66667 4.58333H6.41667ZM8.25 3.66666H13.75V4.58333H8.25V3.66666ZM6.41667 6.41666H15.5833V16.5C15.5833 17.0063 15.1729 17.4167 14.6667 17.4167H7.33333C6.82707 17.4167 6.41667 17.0063 6.41667 16.5V6.41666Z" fill="#AB0519"/>
<path d="M13.75 8.24999H11.9167V15.5833H13.75V8.24999Z" fill="#AB0519"/>
<path d="M10.0833 8.24999H8.25V15.5833H10.0833V8.24999Z" fill="#AB0519"/>
</svg>
